<?xml version="1.0" encoding="UTF-8" standalone="no"?>
<!-- Uploaded to: SVG Repo, www.svgrepo.com, Generator: SVG Repo Mixer Tools -->

<svg
   height="800px"
   width="800px"
   version="1.1"
   id="Layer_1"
   viewBox="0 0 503.322 503.322"
   xml:space="preserve"
   sodipodi:docname="favicon2.svg"
   inkscape:version="1.3 (1:1.3+202307231459+0e150ed6c4)"
   xmlns:inkscape="http://www.inkscape.org/namespaces/inkscape"
   xmlns:sodipodi="http://sodipodi.sourceforge.net/DTD/sodipodi-0.dtd"
   xmlns="http://www.w3.org/2000/svg"
   xmlns:svg="http://www.w3.org/2000/svg"><defs
   id="defs2" /><sodipodi:namedview
   id="namedview2"
   pagecolor="#ffffff"
   bordercolor="#000000"
   borderopacity="0.25"
   inkscape:showpageshadow="2"
   inkscape:pageopacity="0.0"
   inkscape:pagecheckerboard="0"
   inkscape:deskcolor="#d1d1d1"
   inkscape:zoom="1.0325"
   inkscape:cx="399.51574"
   inkscape:cy="400"
   inkscape:window-width="1920"
   inkscape:window-height="1023"
   inkscape:window-x="0"
   inkscape:window-y="0"
   inkscape:window-maximized="1"
   inkscape:current-layer="Layer_1" />&#10;<g
   id="g2">&#10;	<path
   style="fill:#d35f5f"
   d="M503.322,60.746v286.373c0,23.63-19.76,43.39-43.39,43.39H208.271l-86.78,95.458v-95.458H43.39   c-23.63,0-43.39-19.76-43.39-43.39V60.746c0-23.63,19.76-43.39,43.39-43.39h416.542C483.562,17.356,503.322,37.116,503.322,60.746"
   id="path1" />&#10;	<path
   style="fill:#de8787"
   d="M299.424,121.492c-23.101,0-40.552,16.584-47.859,34.712c-7.298-18.128-24.758-34.712-47.859-34.712   c-47.859,0-63.479,60.433-28.906,96.23c12.878,13.329,73.225,74.292,76.861,77.329c4.209-4.183,64.208-63.826,76.67-77.329   C363.007,180.172,347.283,121.492,299.424,121.492"
   id="path2" />&#10;</g>&#10;</svg>
