<?xml version="1.0" encoding="UTF-8" standalone="no"?>
<svg
   height="744.82898"
   width="800"
   version="1.1"
   id="Layer_1"
   viewBox="0 0 503.32201 468.611"
   xml:space="preserve"
   sodipodi:docname="favicon.svg"
   inkscape:version="1.3 (1:1.3+202307231459+0e150ed6c4)"
   xmlns:inkscape="http://www.inkscape.org/namespaces/inkscape"
   xmlns:sodipodi="http://sodipodi.sourceforge.net/DTD/sodipodi-0.dtd"
   xmlns="http://www.w3.org/2000/svg"
   xmlns:svg="http://www.w3.org/2000/svg"><defs
   id="defs2" /><sodipodi:namedview
   id="namedview2"
   pagecolor="#ffffff"
   bordercolor="#000000"
   borderopacity="0.25"
   inkscape:showpageshadow="2"
   inkscape:pageopacity="0.0"
   inkscape:pagecheckerboard="0"
   inkscape:deskcolor="#d1d1d1"
   inkscape:zoom="1.0263363"
   inkscape:cx="400.45354"
   inkscape:cy="373.17203"
   inkscape:window-width="1920"
   inkscape:window-height="1023"
   inkscape:window-x="0"
   inkscape:window-y="0"
   inkscape:window-maximized="1"
   inkscape:current-layer="g3" />&#10;<g
   id="g2"
   style="display:inline"
   transform="translate(0,-17.356)"
   inkscape:label="figure">&#10;	<path
   style="display:inline;fill:#ff7f2a"
   d="m 503.322,60.746 v 286.373 c 0,23.63 -19.76,43.39 -43.39,43.39 H 208.271 l -86.78,95.458 V 390.509 H 43.39 C 19.76,390.509 0,370.749 0,347.119 V 60.746 c 0,-23.63 19.76,-43.39 43.39,-43.39 h 416.542 c 23.63,0 43.39,19.76 43.39,43.39"
   id="path1"
   inkscape:label="bubble" />&#10;	&#10;<g
   id="g3"
   style="display:inline;fill:none"
   transform="rotate(15,251.91589,204.82005)"
   inkscape:label="emoji"><circle
     opacity="0.5"
     cx="251.91589"
     cy="204.82005"
     r="114.18895"
     stroke="#1c274c"
     stroke-width="17.1284"
     id="circle1"
     style="display:inline;opacity:1;fill:none;stroke:#010101;stroke-opacity:1"
     inkscape:label="face" /><path
     d="m 216.66119,249.73741 c 14.36839,3.6015 30.67001,3.60379 47.0744,-0.79247 16.40438,-4.39513 30.52042,-12.54823 41.16397,-22.8515"
     stroke="#1c274c"
     stroke-width="17.1284"
     stroke-linecap="round"
     id="path1-3"
     style="fill:none;fill-opacity:1;stroke:#000000;stroke-opacity:1"
     inkscape:label="smile" /><ellipse
     cx="224.57758"
     cy="245.90614"
     rx="11.418895"
     ry="17.128342"
     transform="rotate(-15)"
     fill="#1c274c"
     id="ellipse1"
     style="fill:#000000;fill-opacity:1;stroke-width:11.4189"
     inkscape:label="left_eye" /><ellipse
     cx="156.06364"
     cy="245.91586"
     rx="11.418895"
     ry="17.128342"
     transform="rotate(-15)"
     fill="#1c274c"
     id="ellipse2"
     style="fill:#000000;fill-opacity:1;stroke-width:11.4189"
     inkscape:label="right_eye" /><path
     style="fill:#ff9955;stroke:#010101;stroke-width:0"
     d="m 385.51514,464.76342 c -70.3672,-6.76429 -129.06247,-56.44241 -146.78125,-124.23176 -4.45825,-17.05659 -5.3182,-24.02815 -5.28816,-42.87094 0.0355,-22.28297 3.42447,-41.12564 10.74995,-59.77004 21.03852,-53.54603 66.88469,-92.03404 124.04779,-104.13853 10.81243,-2.28957 14.44672,-2.59416 31.23573,-2.61784 29.70679,-0.0419 49.23853,4.47022 75.51131,17.44422 72.97223,36.03509 109.81554,121.94515 85.22258,198.71934 -18.22464,56.89357 -62.4097,98.63291 -119.63332,113.01142 -17.02044,4.27669 -38.68247,6.02892 -55.06463,4.45413 z m 61.85278,-40.68512 c 8.17503,-4.02456 15.62223,-11.48927 19.60875,-19.65488 2.91262,-5.96592 3.12785,-7.10815 3.13474,-16.6363 0.004,-5.62681 -0.32808,-11.80429 -0.73813,-13.72773 l -0.74552,-3.49718 6.10439,-3.17512 c 7.62063,-3.96377 10.13136,-6.25595 11.54536,-10.54041 2.34945,-7.11892 -1.07974,-14.45603 -8.06217,-17.24984 -5.2457,-2.09892 -8.61369,-1.46856 -18.32968,3.43059 -17.82596,8.98849 -36.10074,12.97959 -59.43212,12.97959 -23.62213,0 -39.36044,-3.47909 -61.36358,-13.56497 -8.29612,-3.8028 -10.47451,-4.42968 -13.45206,-3.87108 -9.81882,1.84202 -14.96751,12.50818 -9.98357,20.68221 5.49163,9.00667 38.9867,21.54929 64.59186,24.18718 5.6462,0.58168 6.6527,0.97535 7.04706,2.75627 0.25303,1.14271 1.13467,5.10462 1.95919,8.80425 3.31564,14.87721 13.96688,26.79315 28.04357,31.37342 2.64139,0.85945 7.60113,1.24718 13.90563,1.08708 8.79446,-0.22335 10.45293,-0.57041 16.16628,-3.38308 z m -92.9609,-128.78249 c 2.53992,-1.8399 4.92582,-4.8655 6.72298,-8.52547 2.52775,-5.14786 2.7858,-6.62106 2.7858,-15.90396 0,-8.68391 -0.35002,-11.00496 -2.3153,-15.35294 -4.05483,-8.97094 -11.86915,-13.80633 -19.08991,-11.81258 -14.5941,4.02963 -20.10602,30.86428 -9.60041,46.73934 5.40972,8.17462 14.1803,10.15569 21.49684,4.85561 z m 109.21988,-0.10767 c 1.81775,-1.34392 4.50655,-5.05408 6.29416,-8.68502 2.81242,-5.71252 3.12077,-7.20733 3.12077,-15.12873 0,-10.75537 -2.14874,-17.61658 -7.16334,-22.87347 -8.80243,-9.22775 -20.82875,-5.98896 -26.54196,7.14797 -2.65732,6.11024 -3.55656,17.88089 -1.89513,24.80649 1.50177,6.2601 5.91764,13.23454 10.00387,15.80014 4.29871,2.699 11.75232,2.20735 16.18163,-1.06738 z"
     id="path2"
     transform="matrix(0.60771465,-0.16283665,0.16283665,0.60771465,-39.935441,88.944313)"
     inkscape:label="bg_face" /><path
     style="display:inline;fill:#c83737;fill-opacity:1;stroke:#010101;stroke-width:0;stroke-opacity:1"
     d="m 425.89047,398.9683 c -5.17567,-1.7793 -7.22444,-3.98462 -8.87956,-9.55799 -0.79667,-2.68268 -1.34037,-4.95722 -1.20821,-5.05454 0.13215,-0.0973 4.84403,-0.9068 10.47084,-1.79886 5.62681,-0.89205 11.40274,-1.87869 12.8354,-2.19253 2.45322,-0.53741 2.64248,-0.31964 3.25147,3.74142 1.52847,10.19257 -7.18411,18.05482 -16.46994,14.8625 z"
     id="path5"
     transform="matrix(0.60771465,-0.16283665,0.16283665,0.60771465,-39.935441,88.944313)"
     inkscape:label="bg_tongue" /><path
     d="m 263.33477,250.50019 5.45825,11.11972 c 4.12564,8.40659 14.2382,11.93959 22.7019,7.93271 8.63496,-4.08683 12.2559,-14.44948 8.04689,-23.02622 l -5.2447,-10.68351"
     stroke="#1c274c"
     stroke-width="17.1284"
     id="path2-6"
     style="display:inline;fill:none;stroke:#000000;stroke-opacity:1"
     inkscape:label="tongue" /></g></g>&#10;</svg>
